# xmcd CD database file generated by Grip 3.0.5
# 
# Track frame offsets:
#       150
#       16768
#       29712
#       46916
#       62407
#       80220
#       92067
#       103920
#       116002
#       128086
#       140302
# 
# Disc length: 2052 seconds
# 
# Revision: 1
# Processed by: cddbd v1.4PL0 Copyright (c) Steve Scherf et al.
# Submitted via: Grip 3.0.5
# 
DISCID=9108020b
DTITLE=Otis_Spann - The_Blues_Never_Die!
DYEAR=1964
DGENRE=Blues
TTITLE0=The-Blues_Never_Die
TTITLE1=I_Got_a_Feeling
TTITLE2=One_More_Mile_to_Go
TTITLE3=Feelin'_Good
TTITLE4=After_Awhile
TTITLE5=Dust_My_Broom
TTITLE6=Straighten_Up_Baby
TTITLE7=Come_On
TTITLE8=Must_Have_Been_the_Devil
TTITLE9=Lightnin'
TTITLE10=I'm_Ready
EXTD=
EXTT0=
EXTT1=
EXTT2=
EXTT3=
EXTT4=
EXTT5=
EXTT6=
EXTT7=
EXTT8=
EXTT9=
EXTT10=
PLAYORDER=
